<mxfile host="Electron" modified="2023-09-04T19:55:22.251Z" agent="Mozilla/5.0 (Windows NT 10.0; Win64; x64) AppleWebKit/537.36 (KHTML, like Gecko) draw.io/21.6.8 Chrome/114.0.5735.289 Electron/25.5.0 Safari/537.36" etag="bgUkWd2Y27rf1DFZHpWc" version="21.6.8" type="device">
  <diagram name="Страница — 1" id="DvGwit2RotbHwNRNy4Aj">
    <mxGraphModel dx="1590" dy="1123" grid="1" gridSize="10" guides="1" tooltips="1" connect="1" arrows="1" fold="1" page="1" pageScale="1" pageWidth="827" pageHeight="1169" math="0" shadow="0">
      <root>
        <mxCell id="0" />
        <mxCell id="1" parent="0" />
        <mxCell id="awtu7BCgNXhjJa6UgLH_-3" style="edgeStyle=orthogonalEdgeStyle;rounded=0;orthogonalLoop=1;jettySize=auto;html=1;exitX=0.5;exitY=1;exitDx=0;exitDy=0;exitPerimeter=0;" parent="1" source="awtu7BCgNXhjJa6UgLH_-1" edge="1">
          <mxGeometry relative="1" as="geometry">
            <mxPoint x="401.57142857142856" y="135" as="targetPoint" />
          </mxGeometry>
        </mxCell>
        <mxCell id="awtu7BCgNXhjJa6UgLH_-1" value="Начало" style="strokeWidth=2;html=1;shape=mxgraph.flowchart.start_1;whiteSpace=wrap;" parent="1" vertex="1">
          <mxGeometry x="360" y="55" width="83.33" height="50" as="geometry" />
        </mxCell>
        <mxCell id="awtu7BCgNXhjJa6UgLH_-6" style="edgeStyle=orthogonalEdgeStyle;rounded=0;orthogonalLoop=1;jettySize=auto;html=1;exitX=0.5;exitY=1;exitDx=0;exitDy=0;" parent="1" source="awtu7BCgNXhjJa6UgLH_-4" edge="1">
          <mxGeometry relative="1" as="geometry">
            <mxPoint x="402" y="195" as="targetPoint" />
          </mxGeometry>
        </mxCell>
        <mxCell id="awtu7BCgNXhjJa6UgLH_-4" value="&lt;font face=&quot;Arial&quot;&gt;{inRows, inColumns}&lt;/font&gt;" style="shape=parallelogram;perimeter=parallelogramPerimeter;whiteSpace=wrap;html=1;fixedSize=1;" parent="1" vertex="1">
          <mxGeometry x="330.66" y="135" width="142.01" height="40" as="geometry" />
        </mxCell>
        <mxCell id="awtu7BCgNXhjJa6UgLH_-5" value="&lt;h3 style=&quot;text-align: left;&quot;&gt;&lt;span style=&quot;background-color: initial;&quot;&gt;&lt;font face=&quot;Arial&quot;&gt;Легенда:&lt;/font&gt;&lt;/span&gt;&lt;/h3&gt;&lt;div style=&quot;text-align: left;&quot;&gt;&lt;font face=&quot;Arial&quot;&gt;&lt;br&gt;&lt;/font&gt;&lt;/div&gt;&lt;div style=&quot;text-align: left;&quot;&gt;&lt;span style=&quot;background-color: initial;&quot;&gt;&lt;font face=&quot;Arial&quot;&gt;inRows – количество строк&lt;/font&gt;&lt;/span&gt;&lt;/div&gt;&lt;div style=&quot;text-align: left;&quot;&gt;&lt;span style=&quot;background-color: initial;&quot;&gt;&lt;font face=&quot;Arial&quot;&gt;inColumns – количество столбцов&lt;/font&gt;&lt;/span&gt;&lt;/div&gt;&lt;div style=&quot;text-align: left;&quot;&gt;&lt;span style=&quot;background-color: initial;&quot;&gt;&lt;font face=&quot;Arial&quot;&gt;row – текущая строка&lt;/font&gt;&lt;/span&gt;&lt;/div&gt;&lt;div style=&quot;text-align: left;&quot;&gt;&lt;span style=&quot;background-color: initial;&quot;&gt;&lt;font face=&quot;Arial&quot;&gt;column – текущий столбец&lt;/font&gt;&lt;/span&gt;&lt;/div&gt;&lt;div style=&quot;text-align: left;&quot;&gt;&lt;span style=&quot;font-family: Arial; background-color: initial;&quot;&gt;stepsRow – количество шагов по строкам&lt;/span&gt;&lt;br&gt;&lt;/div&gt;&lt;div style=&quot;text-align: left;&quot;&gt;&lt;span style=&quot;background-color: initial;&quot;&gt;&lt;font face=&quot;Arial&quot;&gt;stepsColumn – количество шагов по столбцам&lt;/font&gt;&lt;/span&gt;&lt;/div&gt;&lt;div style=&quot;text-align: left;&quot;&gt;&lt;span style=&quot;background-color: initial;&quot;&gt;&lt;font face=&quot;Arial&quot;&gt;direction – направление заполнения&lt;/font&gt;&lt;/span&gt;&lt;/div&gt;&lt;div style=&quot;text-align: left;&quot;&gt;&lt;span style=&quot;background-color: initial;&quot;&gt;&lt;font face=&quot;Arial&quot;&gt;number – текущее число&lt;/font&gt;&lt;/span&gt;&lt;/div&gt;&lt;div style=&quot;text-align: left;&quot;&gt;&lt;span style=&quot;background-color: initial;&quot;&gt;&lt;font face=&quot;Arial&quot;&gt;spiralMatrix – заполняемая матрица&lt;/font&gt;&lt;/span&gt;&lt;/div&gt;" style="text;html=1;strokeColor=none;fillColor=none;align=center;verticalAlign=top;whiteSpace=wrap;rounded=0;" parent="1" vertex="1">
          <mxGeometry x="20" y="55" width="260" height="220" as="geometry" />
        </mxCell>
        <mxCell id="u1Zfe24nEIfE2NsDHZnL-3" value="" style="edgeStyle=orthogonalEdgeStyle;rounded=0;orthogonalLoop=1;jettySize=auto;html=1;" parent="1" source="awtu7BCgNXhjJa6UgLH_-7" target="u1Zfe24nEIfE2NsDHZnL-2" edge="1">
          <mxGeometry relative="1" as="geometry" />
        </mxCell>
        <mxCell id="awtu7BCgNXhjJa6UgLH_-7" value="&lt;font face=&quot;Arial&quot;&gt;row = 0&lt;br&gt;column = 0&lt;br&gt;stepsRow = inRows&lt;br&gt;stepsColumns = inColumns&lt;br&gt;direction = 1&lt;br&gt;number = 1&lt;br&gt;spiralMatrix [inRow * inColumns]&lt;br&gt;&lt;/font&gt;" style="rounded=1;whiteSpace=wrap;html=1;absoluteArcSize=1;arcSize=0;strokeWidth=2;align=left;" parent="1" vertex="1">
          <mxGeometry x="308.04" y="195" width="186.75" height="120" as="geometry" />
        </mxCell>
        <mxCell id="u1Zfe24nEIfE2NsDHZnL-5" value="да" style="edgeStyle=orthogonalEdgeStyle;rounded=0;orthogonalLoop=1;jettySize=auto;html=1;exitX=0.5;exitY=1;exitDx=0;exitDy=0;" parent="1" source="awtu7BCgNXhjJa6UgLH_-11" target="Ha0NYttJCI5NYpY53pFh-9" edge="1">
          <mxGeometry relative="1" as="geometry" />
        </mxCell>
        <mxCell id="u1Zfe24nEIfE2NsDHZnL-9" value="нет" style="edgeStyle=orthogonalEdgeStyle;rounded=0;orthogonalLoop=1;jettySize=auto;html=1;" parent="1" source="awtu7BCgNXhjJa6UgLH_-11" target="u1Zfe24nEIfE2NsDHZnL-8" edge="1">
          <mxGeometry x="-0.7654" relative="1" as="geometry">
            <mxPoint as="offset" />
          </mxGeometry>
        </mxCell>
        <mxCell id="awtu7BCgNXhjJa6UgLH_-11" value="step &amp;gt; 0" style="rhombus;whiteSpace=wrap;html=1;strokeWidth=2;" parent="1" vertex="1">
          <mxGeometry x="332.71000000000004" y="435" width="137.39" height="70" as="geometry" />
        </mxCell>
        <mxCell id="Ha0NYttJCI5NYpY53pFh-4" value="spiralMatrix" style="shape=document;whiteSpace=wrap;html=1;boundedLbl=1;strokeWidth=2;" parent="1" vertex="1">
          <mxGeometry x="361.4" y="1045" width="80" height="40" as="geometry" />
        </mxCell>
        <mxCell id="Ha0NYttJCI5NYpY53pFh-7" style="edgeStyle=orthogonalEdgeStyle;rounded=0;orthogonalLoop=1;jettySize=auto;html=1;entryX=0.5;entryY=0;entryDx=0;entryDy=0;entryPerimeter=0;exitX=0.5;exitY=0.858;exitDx=0;exitDy=0;exitPerimeter=0;" parent="1" source="Ha0NYttJCI5NYpY53pFh-4" target="Ha0NYttJCI5NYpY53pFh-6" edge="1">
          <mxGeometry relative="1" as="geometry">
            <mxPoint x="351.4" y="1095" as="sourcePoint" />
          </mxGeometry>
        </mxCell>
        <mxCell id="Ha0NYttJCI5NYpY53pFh-6" value="Конец" style="strokeWidth=2;html=1;shape=mxgraph.flowchart.terminator;whiteSpace=wrap;" parent="1" vertex="1">
          <mxGeometry x="366.4" y="1105" width="70" height="30" as="geometry" />
        </mxCell>
        <mxCell id="u1Zfe24nEIfE2NsDHZnL-6" style="edgeStyle=orthogonalEdgeStyle;rounded=0;orthogonalLoop=1;jettySize=auto;html=1;exitX=0.5;exitY=1;exitDx=0;exitDy=0;" parent="1" source="Ha0NYttJCI5NYpY53pFh-9" edge="1">
          <mxGeometry relative="1" as="geometry">
            <mxPoint x="402" y="415" as="targetPoint" />
            <Array as="points">
              <mxPoint x="402" y="645" />
              <mxPoint x="278" y="645" />
              <mxPoint x="278" y="415" />
              <mxPoint x="402" y="415" />
            </Array>
          </mxGeometry>
        </mxCell>
        <mxCell id="Ha0NYttJCI5NYpY53pFh-9" value="spiralMatrix[row, column] = number&amp;nbsp;&lt;br&gt;number++&lt;br&gt;column += direction&lt;br&gt;step--" style="whiteSpace=wrap;html=1;rounded=1;arcSize=0;strokeWidth=2;" parent="1" vertex="1">
          <mxGeometry x="297.91" y="555" width="207.51" height="70" as="geometry" />
        </mxCell>
        <mxCell id="u1Zfe24nEIfE2NsDHZnL-4" style="edgeStyle=orthogonalEdgeStyle;rounded=0;orthogonalLoop=1;jettySize=auto;html=1;exitX=0.5;exitY=1;exitDx=0;exitDy=0;" parent="1" source="u1Zfe24nEIfE2NsDHZnL-2" target="awtu7BCgNXhjJa6UgLH_-11" edge="1">
          <mxGeometry relative="1" as="geometry" />
        </mxCell>
        <mxCell id="u1Zfe24nEIfE2NsDHZnL-2" value="step = stepsColumns" style="whiteSpace=wrap;html=1;align=center;rounded=1;arcSize=0;strokeWidth=2;" parent="1" vertex="1">
          <mxGeometry x="341.41" y="355" width="120" height="30" as="geometry" />
        </mxCell>
        <mxCell id="u1Zfe24nEIfE2NsDHZnL-12" value="" style="edgeStyle=orthogonalEdgeStyle;rounded=0;orthogonalLoop=1;jettySize=auto;html=1;" parent="1" source="u1Zfe24nEIfE2NsDHZnL-8" target="u1Zfe24nEIfE2NsDHZnL-11" edge="1">
          <mxGeometry relative="1" as="geometry" />
        </mxCell>
        <mxCell id="u1Zfe24nEIfE2NsDHZnL-8" value="column -= direction&lt;br&gt;stepsRow--&lt;br&gt;row += direction" style="whiteSpace=wrap;html=1;strokeWidth=2;" parent="1" vertex="1">
          <mxGeometry x="570" y="525" width="120" height="60" as="geometry" />
        </mxCell>
        <mxCell id="u1Zfe24nEIfE2NsDHZnL-16" value="" style="edgeStyle=orthogonalEdgeStyle;rounded=0;orthogonalLoop=1;jettySize=auto;html=1;" parent="1" source="u1Zfe24nEIfE2NsDHZnL-11" target="u1Zfe24nEIfE2NsDHZnL-15" edge="1">
          <mxGeometry relative="1" as="geometry" />
        </mxCell>
        <mxCell id="u1Zfe24nEIfE2NsDHZnL-11" value="step = stepsRow" style="whiteSpace=wrap;html=1;strokeWidth=2;" parent="1" vertex="1">
          <mxGeometry x="580" y="625" width="100" height="30" as="geometry" />
        </mxCell>
        <mxCell id="u1Zfe24nEIfE2NsDHZnL-18" style="edgeStyle=orthogonalEdgeStyle;rounded=0;orthogonalLoop=1;jettySize=auto;html=1;exitX=0.5;exitY=1;exitDx=0;exitDy=0;" parent="1" source="u1Zfe24nEIfE2NsDHZnL-13" edge="1">
          <mxGeometry relative="1" as="geometry">
            <mxPoint x="630" y="685" as="targetPoint" />
            <Array as="points">
              <mxPoint x="630" y="925" />
              <mxPoint x="755" y="925" />
              <mxPoint x="755" y="685" />
            </Array>
          </mxGeometry>
        </mxCell>
        <mxCell id="u1Zfe24nEIfE2NsDHZnL-13" value="spiralMatrix[row, column] = number&lt;br&gt;number++&lt;br&gt;row += direction&lt;br&gt;step--" style="whiteSpace=wrap;html=1;strokeWidth=2;" parent="1" vertex="1">
          <mxGeometry x="525" y="835" width="210" height="70" as="geometry" />
        </mxCell>
        <mxCell id="u1Zfe24nEIfE2NsDHZnL-17" value="да" style="edgeStyle=orthogonalEdgeStyle;rounded=0;orthogonalLoop=1;jettySize=auto;html=1;exitX=0.5;exitY=1;exitDx=0;exitDy=0;entryX=0.5;entryY=0;entryDx=0;entryDy=0;" parent="1" source="u1Zfe24nEIfE2NsDHZnL-15" target="u1Zfe24nEIfE2NsDHZnL-13" edge="1">
          <mxGeometry relative="1" as="geometry" />
        </mxCell>
        <mxCell id="u1Zfe24nEIfE2NsDHZnL-20" value="нет" style="edgeStyle=orthogonalEdgeStyle;rounded=0;orthogonalLoop=1;jettySize=auto;html=1;" parent="1" source="u1Zfe24nEIfE2NsDHZnL-15" target="u1Zfe24nEIfE2NsDHZnL-19" edge="1">
          <mxGeometry x="-0.6825" relative="1" as="geometry">
            <Array as="points">
              <mxPoint x="401" y="750" />
            </Array>
            <mxPoint as="offset" />
          </mxGeometry>
        </mxCell>
        <mxCell id="u1Zfe24nEIfE2NsDHZnL-15" value="step &amp;gt; 0" style="rhombus;whiteSpace=wrap;html=1;strokeWidth=2;" parent="1" vertex="1">
          <mxGeometry x="560" y="715" width="140" height="70" as="geometry" />
        </mxCell>
        <mxCell id="u1Zfe24nEIfE2NsDHZnL-24" value="" style="edgeStyle=orthogonalEdgeStyle;rounded=0;orthogonalLoop=1;jettySize=auto;html=1;" parent="1" source="u1Zfe24nEIfE2NsDHZnL-19" target="u1Zfe24nEIfE2NsDHZnL-23" edge="1">
          <mxGeometry relative="1" as="geometry" />
        </mxCell>
        <mxCell id="u1Zfe24nEIfE2NsDHZnL-19" value="column -= direction&lt;br&gt;direction *= -1&lt;br&gt;stepsColumn--&lt;br&gt;column += direction" style="whiteSpace=wrap;html=1;strokeWidth=2;" parent="1" vertex="1">
          <mxGeometry x="341.91" y="785" width="119" height="70" as="geometry" />
        </mxCell>
        <mxCell id="u1Zfe24nEIfE2NsDHZnL-25" value="да" style="edgeStyle=orthogonalEdgeStyle;rounded=0;orthogonalLoop=1;jettySize=auto;html=1;exitX=0;exitY=0.5;exitDx=0;exitDy=0;" parent="1" source="u1Zfe24nEIfE2NsDHZnL-23" edge="1">
          <mxGeometry x="-0.9428" relative="1" as="geometry">
            <mxPoint x="401" y="335" as="targetPoint" />
            <Array as="points">
              <mxPoint x="200" y="950" />
              <mxPoint x="200" y="335" />
            </Array>
            <mxPoint as="offset" />
          </mxGeometry>
        </mxCell>
        <mxCell id="u1Zfe24nEIfE2NsDHZnL-26" value="нет" style="edgeStyle=orthogonalEdgeStyle;rounded=0;orthogonalLoop=1;jettySize=auto;html=1;exitX=0.5;exitY=1;exitDx=0;exitDy=0;entryX=0.5;entryY=0;entryDx=0;entryDy=0;" parent="1" source="u1Zfe24nEIfE2NsDHZnL-23" target="Ha0NYttJCI5NYpY53pFh-4" edge="1">
          <mxGeometry relative="1" as="geometry" />
        </mxCell>
        <mxCell id="u1Zfe24nEIfE2NsDHZnL-23" value="stepsRow &amp;gt;0 &amp;amp;&amp;amp; stepsColumns &amp;gt; 0" style="rhombus;whiteSpace=wrap;html=1;strokeWidth=2;" parent="1" vertex="1">
          <mxGeometry x="266.4" y="895" width="270" height="110" as="geometry" />
        </mxCell>
        <mxCell id="EmdX5fNHuq1iSiNroixk-1" value="&lt;b&gt;&lt;font style=&quot;font-size: 16px;&quot;&gt;Модуль формирования матрицы&lt;/font&gt;&lt;/b&gt;" style="text;html=1;strokeColor=none;fillColor=none;align=center;verticalAlign=middle;whiteSpace=wrap;rounded=0;" parent="1" vertex="1">
          <mxGeometry x="272" y="15" width="282.6" height="30" as="geometry" />
        </mxCell>
        <mxCell id="EmdX5fNHuq1iSiNroixk-2" value="&lt;b&gt;&lt;font style=&quot;font-size: 16px;&quot;&gt;Модуль выборки чисел&lt;/font&gt;&lt;/b&gt;" style="text;html=1;strokeColor=none;fillColor=none;align=center;verticalAlign=middle;whiteSpace=wrap;rounded=0;" parent="1" vertex="1">
          <mxGeometry x="1160" y="15" width="200" height="30" as="geometry" />
        </mxCell>
        <mxCell id="EmdX5fNHuq1iSiNroixk-6" style="edgeStyle=orthogonalEdgeStyle;rounded=0;orthogonalLoop=1;jettySize=auto;html=1;exitX=0.5;exitY=1;exitDx=0;exitDy=0;exitPerimeter=0;" parent="1" source="EmdX5fNHuq1iSiNroixk-4" target="EmdX5fNHuq1iSiNroixk-5" edge="1">
          <mxGeometry relative="1" as="geometry" />
        </mxCell>
        <mxCell id="EmdX5fNHuq1iSiNroixk-4" value="Начало" style="strokeWidth=2;html=1;shape=mxgraph.flowchart.start_1;whiteSpace=wrap;" parent="1" vertex="1">
          <mxGeometry x="1225" y="105" width="70" height="40" as="geometry" />
        </mxCell>
        <mxCell id="EmdX5fNHuq1iSiNroixk-10" value="" style="edgeStyle=orthogonalEdgeStyle;rounded=0;orthogonalLoop=1;jettySize=auto;html=1;" parent="1" source="EmdX5fNHuq1iSiNroixk-5" target="EmdX5fNHuq1iSiNroixk-9" edge="1">
          <mxGeometry relative="1" as="geometry" />
        </mxCell>
        <mxCell id="EmdX5fNHuq1iSiNroixk-5" value="inString" style="shape=parallelogram;perimeter=parallelogramPerimeter;whiteSpace=wrap;html=1;fixedSize=1;strokeWidth=2;" parent="1" vertex="1">
          <mxGeometry x="1207.5" y="175" width="105" height="40" as="geometry" />
        </mxCell>
        <mxCell id="EmdX5fNHuq1iSiNroixk-8" value="&lt;font style=&quot;&quot;&gt;&lt;b style=&quot;font-size: 14px;&quot;&gt;Легенда&lt;/b&gt;&lt;br&gt;&lt;br&gt;&lt;font style=&quot;font-size: 12px;&quot;&gt;inString – входящая символьная строка&lt;br&gt;i – индекс массива символов&lt;br&gt;&lt;/font&gt;outArray – возвращаемый массив с числами&lt;br&gt;tempArray – сборочный массив&lt;br&gt;ind – индекс возвращаемого и сборочного массивов&lt;br&gt;quantiti – количество действительно собранных чисел&lt;br&gt;Digit – временно хранит преобразованный в цифру символ&lt;br&gt;&lt;/font&gt;" style="text;html=1;strokeColor=none;fillColor=none;align=left;verticalAlign=middle;whiteSpace=wrap;rounded=0;labelPosition=center;verticalLabelPosition=middle;" parent="1" vertex="1">
          <mxGeometry x="860" y="70" width="280" height="200" as="geometry" />
        </mxCell>
        <mxCell id="Jo3el0Z35PBfp2zs-FnJ-3" style="edgeStyle=orthogonalEdgeStyle;rounded=0;orthogonalLoop=1;jettySize=auto;html=1;exitX=0.5;exitY=1;exitDx=0;exitDy=0;entryX=0.5;entryY=0;entryDx=0;entryDy=0;" parent="1" source="EmdX5fNHuq1iSiNroixk-9" target="yyMuqoqaVKjdWiteK0y0-17" edge="1">
          <mxGeometry relative="1" as="geometry" />
        </mxCell>
        <mxCell id="EmdX5fNHuq1iSiNroixk-9" value="inString to charArray&lt;br&gt;tempArray.Length = charArray.Length" style="whiteSpace=wrap;html=1;strokeWidth=2;" parent="1" vertex="1">
          <mxGeometry x="1154" y="250" width="211.99" height="50" as="geometry" />
        </mxCell>
        <mxCell id="yyMuqoqaVKjdWiteK0y0-11" style="edgeStyle=orthogonalEdgeStyle;rounded=0;orthogonalLoop=1;jettySize=auto;html=1;exitX=0.5;exitY=1;exitDx=0;exitDy=0;entryX=0.5;entryY=0;entryDx=0;entryDy=0;" parent="1" source="yyMuqoqaVKjdWiteK0y0-1" target="yyMuqoqaVKjdWiteK0y0-5" edge="1">
          <mxGeometry relative="1" as="geometry" />
        </mxCell>
        <mxCell id="yyMuqoqaVKjdWiteK0y0-1" value="charArray[ i ] To Digit" style="rounded=1;whiteSpace=wrap;html=1;absoluteArcSize=1;arcSize=0;strokeWidth=2;" parent="1" vertex="1">
          <mxGeometry x="1191.26" y="600" width="137.5" height="40" as="geometry" />
        </mxCell>
        <mxCell id="yyMuqoqaVKjdWiteK0y0-20" value="да" style="edgeStyle=orthogonalEdgeStyle;rounded=0;orthogonalLoop=1;jettySize=auto;html=1;exitX=0.5;exitY=1;exitDx=0;exitDy=0;entryX=0.5;entryY=0;entryDx=0;entryDy=0;" parent="1" source="yyMuqoqaVKjdWiteK0y0-5" target="yyMuqoqaVKjdWiteK0y0-19" edge="1">
          <mxGeometry x="-0.1429" relative="1" as="geometry">
            <mxPoint as="offset" />
          </mxGeometry>
        </mxCell>
        <mxCell id="yyMuqoqaVKjdWiteK0y0-28" value="нет" style="edgeStyle=orthogonalEdgeStyle;rounded=0;orthogonalLoop=1;jettySize=auto;html=1;exitX=0;exitY=0.5;exitDx=0;exitDy=0;entryX=0.5;entryY=0;entryDx=0;entryDy=0;" parent="1" source="yyMuqoqaVKjdWiteK0y0-5" target="yyMuqoqaVKjdWiteK0y0-27" edge="1">
          <mxGeometry x="-0.7647" relative="1" as="geometry">
            <mxPoint as="offset" />
          </mxGeometry>
        </mxCell>
        <mxCell id="yyMuqoqaVKjdWiteK0y0-5" value="0 &amp;lt;= Digit &amp;lt;= 9" style="rhombus;whiteSpace=wrap;html=1;strokeWidth=2;" parent="1" vertex="1">
          <mxGeometry x="1190" y="685" width="140" height="60" as="geometry" />
        </mxCell>
        <mxCell id="yyMuqoqaVKjdWiteK0y0-33" style="edgeStyle=orthogonalEdgeStyle;rounded=0;orthogonalLoop=1;jettySize=auto;html=1;exitX=0.5;exitY=1;exitDx=0;exitDy=0;" parent="1" source="yyMuqoqaVKjdWiteK0y0-6" edge="1">
          <mxGeometry relative="1" as="geometry">
            <mxPoint x="1050" y="1000" as="targetPoint" />
            <Array as="points">
              <mxPoint x="1260" y="1000" />
            </Array>
          </mxGeometry>
        </mxCell>
        <mxCell id="yyMuqoqaVKjdWiteK0y0-6" value="number = number * 10 + Digit" style="rounded=1;whiteSpace=wrap;html=1;absoluteArcSize=1;arcSize=0;strokeWidth=2;" parent="1" vertex="1">
          <mxGeometry x="1171.25" y="940" width="177.5" height="40" as="geometry" />
        </mxCell>
        <mxCell id="yyMuqoqaVKjdWiteK0y0-9" value="да" style="edgeStyle=orthogonalEdgeStyle;rounded=0;orthogonalLoop=1;jettySize=auto;html=1;exitX=0.5;exitY=1;exitDx=0;exitDy=0;entryX=0.5;entryY=0;entryDx=0;entryDy=0;" parent="1" source="yyMuqoqaVKjdWiteK0y0-7" target="yyMuqoqaVKjdWiteK0y0-1" edge="1">
          <mxGeometry relative="1" as="geometry" />
        </mxCell>
        <mxCell id="FL35kg1szU_DRtUcH_IO-7" value="нет" style="edgeStyle=orthogonalEdgeStyle;rounded=0;orthogonalLoop=1;jettySize=auto;html=1;exitX=1;exitY=0.5;exitDx=0;exitDy=0;entryX=0.5;entryY=0;entryDx=0;entryDy=0;" edge="1" parent="1" source="yyMuqoqaVKjdWiteK0y0-7" target="FL35kg1szU_DRtUcH_IO-4">
          <mxGeometry x="-0.821" relative="1" as="geometry">
            <Array as="points">
              <mxPoint x="1398" y="510" />
              <mxPoint x="1398" y="370" />
              <mxPoint x="1520" y="370" />
            </Array>
            <mxPoint as="offset" />
          </mxGeometry>
        </mxCell>
        <mxCell id="yyMuqoqaVKjdWiteK0y0-7" value="i &amp;lt; inArray.Length" style="rhombus;whiteSpace=wrap;html=1;strokeWidth=2;" parent="1" vertex="1">
          <mxGeometry x="1180" y="470" width="160.01" height="80" as="geometry" />
        </mxCell>
        <mxCell id="yyMuqoqaVKjdWiteK0y0-16" style="edgeStyle=orthogonalEdgeStyle;rounded=0;orthogonalLoop=1;jettySize=auto;html=1;exitX=0.5;exitY=1;exitDx=0;exitDy=0;" parent="1" source="yyMuqoqaVKjdWiteK0y0-13" edge="1">
          <mxGeometry relative="1" as="geometry">
            <mxPoint x="1260" y="440" as="targetPoint" />
            <Array as="points">
              <mxPoint x="1050" y="1090" />
              <mxPoint x="910" y="1090" />
              <mxPoint x="910" y="440" />
            </Array>
          </mxGeometry>
        </mxCell>
        <mxCell id="yyMuqoqaVKjdWiteK0y0-13" value="i++" style="rounded=1;whiteSpace=wrap;html=1;absoluteArcSize=1;arcSize=0;strokeWidth=2;" parent="1" vertex="1">
          <mxGeometry x="1020" y="1020" width="60" height="35" as="geometry" />
        </mxCell>
        <mxCell id="Jo3el0Z35PBfp2zs-FnJ-5" style="edgeStyle=orthogonalEdgeStyle;rounded=0;orthogonalLoop=1;jettySize=auto;html=1;exitX=0.5;exitY=1;exitDx=0;exitDy=0;entryX=0.5;entryY=0;entryDx=0;entryDy=0;" parent="1" source="yyMuqoqaVKjdWiteK0y0-17" target="yyMuqoqaVKjdWiteK0y0-7" edge="1">
          <mxGeometry relative="1" as="geometry" />
        </mxCell>
        <mxCell id="yyMuqoqaVKjdWiteK0y0-17" value="&lt;div style=&quot;text-align: left;&quot;&gt;&lt;span style=&quot;background-color: initial;&quot;&gt;i = 0&lt;/span&gt;&lt;/div&gt;&lt;div style=&quot;text-align: left;&quot;&gt;&lt;span style=&quot;background-color: initial;&quot;&gt;ind = 0&lt;/span&gt;&lt;/div&gt;&lt;div style=&quot;text-align: left;&quot;&gt;&lt;span style=&quot;background-color: initial;&quot;&gt;quantiti = 0&lt;/span&gt;&lt;br&gt;&lt;/div&gt;&lt;div style=&quot;text-align: left;&quot;&gt;&lt;span style=&quot;background-color: initial;&quot;&gt;number = -1&lt;/span&gt;&lt;/div&gt;" style="rounded=1;whiteSpace=wrap;html=1;absoluteArcSize=1;arcSize=0;strokeWidth=2;align=center;" parent="1" vertex="1">
          <mxGeometry x="1209.99" y="340" width="100" height="75" as="geometry" />
        </mxCell>
        <mxCell id="yyMuqoqaVKjdWiteK0y0-23" value="да" style="edgeStyle=orthogonalEdgeStyle;rounded=0;orthogonalLoop=1;jettySize=auto;html=1;exitX=0.5;exitY=1;exitDx=0;exitDy=0;entryX=0.5;entryY=0;entryDx=0;entryDy=0;" parent="1" source="yyMuqoqaVKjdWiteK0y0-19" target="yyMuqoqaVKjdWiteK0y0-21" edge="1">
          <mxGeometry x="-0.1429" relative="1" as="geometry">
            <mxPoint as="offset" />
          </mxGeometry>
        </mxCell>
        <mxCell id="yyMuqoqaVKjdWiteK0y0-25" value="нет" style="edgeStyle=orthogonalEdgeStyle;rounded=0;orthogonalLoop=1;jettySize=auto;html=1;exitX=1;exitY=0.5;exitDx=0;exitDy=0;" parent="1" source="yyMuqoqaVKjdWiteK0y0-19" edge="1">
          <mxGeometry x="-0.8904" relative="1" as="geometry">
            <mxPoint x="1260" y="920" as="targetPoint" />
            <Array as="points">
              <mxPoint x="1360" y="805" />
              <mxPoint x="1360" y="920" />
            </Array>
            <mxPoint as="offset" />
          </mxGeometry>
        </mxCell>
        <mxCell id="yyMuqoqaVKjdWiteK0y0-19" value="number &amp;lt; 0" style="rhombus;whiteSpace=wrap;html=1;strokeWidth=2;" parent="1" vertex="1">
          <mxGeometry x="1195" y="780" width="130" height="50" as="geometry" />
        </mxCell>
        <mxCell id="yyMuqoqaVKjdWiteK0y0-24" style="edgeStyle=orthogonalEdgeStyle;rounded=0;orthogonalLoop=1;jettySize=auto;html=1;exitX=0.5;exitY=1;exitDx=0;exitDy=0;entryX=0.5;entryY=0;entryDx=0;entryDy=0;" parent="1" source="yyMuqoqaVKjdWiteK0y0-21" target="yyMuqoqaVKjdWiteK0y0-6" edge="1">
          <mxGeometry relative="1" as="geometry" />
        </mxCell>
        <mxCell id="yyMuqoqaVKjdWiteK0y0-21" value="number = 0" style="rounded=1;whiteSpace=wrap;html=1;absoluteArcSize=1;arcSize=0;strokeWidth=2;" parent="1" vertex="1">
          <mxGeometry x="1220.01" y="870" width="80" height="30" as="geometry" />
        </mxCell>
        <mxCell id="yyMuqoqaVKjdWiteK0y0-30" value="да" style="edgeStyle=orthogonalEdgeStyle;rounded=0;orthogonalLoop=1;jettySize=auto;html=1;exitX=0.5;exitY=1;exitDx=0;exitDy=0;entryX=0.5;entryY=0;entryDx=0;entryDy=0;" parent="1" source="yyMuqoqaVKjdWiteK0y0-27" target="yyMuqoqaVKjdWiteK0y0-29" edge="1">
          <mxGeometry x="-0.2" relative="1" as="geometry">
            <mxPoint as="offset" />
          </mxGeometry>
        </mxCell>
        <mxCell id="Jo3el0Z35PBfp2zs-FnJ-4" value="нет" style="edgeStyle=orthogonalEdgeStyle;rounded=0;orthogonalLoop=1;jettySize=auto;html=1;exitX=0;exitY=0.5;exitDx=0;exitDy=0;" parent="1" source="yyMuqoqaVKjdWiteK0y0-27" edge="1">
          <mxGeometry x="-0.8649" relative="1" as="geometry">
            <mxPoint x="1050" y="1000" as="targetPoint" />
            <Array as="points">
              <mxPoint x="940" y="805" />
              <mxPoint x="940" y="1000" />
            </Array>
            <mxPoint as="offset" />
          </mxGeometry>
        </mxCell>
        <mxCell id="yyMuqoqaVKjdWiteK0y0-27" value="number &amp;gt;= 0" style="rhombus;whiteSpace=wrap;html=1;strokeWidth=2;" parent="1" vertex="1">
          <mxGeometry x="985" y="780" width="130" height="50" as="geometry" />
        </mxCell>
        <mxCell id="yyMuqoqaVKjdWiteK0y0-32" style="edgeStyle=orthogonalEdgeStyle;rounded=0;orthogonalLoop=1;jettySize=auto;html=1;exitX=0.5;exitY=1;exitDx=0;exitDy=0;entryX=0.5;entryY=0;entryDx=0;entryDy=0;" parent="1" source="yyMuqoqaVKjdWiteK0y0-29" target="yyMuqoqaVKjdWiteK0y0-13" edge="1">
          <mxGeometry relative="1" as="geometry" />
        </mxCell>
        <mxCell id="yyMuqoqaVKjdWiteK0y0-29" value="tempArray[ind] = number&lt;br&gt;ind++&lt;br&gt;quantiti++&lt;br&gt;number = -1" style="rounded=1;whiteSpace=wrap;html=1;absoluteArcSize=1;arcSize=0;strokeWidth=2;" parent="1" vertex="1">
          <mxGeometry x="975" y="890" width="150" height="80" as="geometry" />
        </mxCell>
        <mxCell id="Jo3el0Z35PBfp2zs-FnJ-9" style="edgeStyle=orthogonalEdgeStyle;rounded=0;orthogonalLoop=1;jettySize=auto;html=1;exitX=0.5;exitY=1;exitDx=0;exitDy=0;entryX=0.5;entryY=0;entryDx=0;entryDy=0;" parent="1" source="Jo3el0Z35PBfp2zs-FnJ-6" target="Jo3el0Z35PBfp2zs-FnJ-8" edge="1">
          <mxGeometry relative="1" as="geometry" />
        </mxCell>
        <mxCell id="FL35kg1szU_DRtUcH_IO-2" value="" style="edgeStyle=orthogonalEdgeStyle;rounded=0;orthogonalLoop=1;jettySize=auto;html=1;exitX=0.5;exitY=1;exitDx=0;exitDy=0;entryX=0.5;entryY=0;entryDx=0;entryDy=0;" edge="1" parent="1" source="FL35kg1szU_DRtUcH_IO-3" target="Jo3el0Z35PBfp2zs-FnJ-6">
          <mxGeometry relative="1" as="geometry">
            <mxPoint x="1520" y="570" as="sourcePoint" />
            <mxPoint x="1520" y="590" as="targetPoint" />
            <Array as="points" />
          </mxGeometry>
        </mxCell>
        <mxCell id="Jo3el0Z35PBfp2zs-FnJ-6" value="outArray.Length = quantiti&lt;br&gt;ind = 0" style="rounded=1;whiteSpace=wrap;html=1;absoluteArcSize=1;arcSize=0;strokeWidth=2;glass=0;" parent="1" vertex="1">
          <mxGeometry x="1440" y="600" width="160" height="50" as="geometry" />
        </mxCell>
        <mxCell id="Jo3el0Z35PBfp2zs-FnJ-11" value="да" style="edgeStyle=orthogonalEdgeStyle;rounded=0;orthogonalLoop=1;jettySize=auto;html=1;" parent="1" source="Jo3el0Z35PBfp2zs-FnJ-8" target="Jo3el0Z35PBfp2zs-FnJ-10" edge="1">
          <mxGeometry relative="1" as="geometry" />
        </mxCell>
        <mxCell id="Jo3el0Z35PBfp2zs-FnJ-15" value="нет" style="edgeStyle=orthogonalEdgeStyle;rounded=0;orthogonalLoop=1;jettySize=auto;html=1;exitX=0;exitY=0.5;exitDx=0;exitDy=0;entryX=0.5;entryY=0;entryDx=0;entryDy=0;" parent="1" source="Jo3el0Z35PBfp2zs-FnJ-8" target="Jo3el0Z35PBfp2zs-FnJ-13" edge="1">
          <mxGeometry x="-0.8667" relative="1" as="geometry">
            <Array as="points">
              <mxPoint x="1390" y="740" />
              <mxPoint x="1390" y="920" />
              <mxPoint x="1520" y="920" />
            </Array>
            <mxPoint as="offset" />
          </mxGeometry>
        </mxCell>
        <mxCell id="Jo3el0Z35PBfp2zs-FnJ-8" value="ind &amp;lt; outArray.Length" style="rhombus;whiteSpace=wrap;html=1;strokeWidth=2;" parent="1" vertex="1">
          <mxGeometry x="1435" y="700" width="170" height="80" as="geometry" />
        </mxCell>
        <mxCell id="Jo3el0Z35PBfp2zs-FnJ-12" style="edgeStyle=orthogonalEdgeStyle;rounded=0;orthogonalLoop=1;jettySize=auto;html=1;exitX=0.5;exitY=1;exitDx=0;exitDy=0;" parent="1" source="Jo3el0Z35PBfp2zs-FnJ-10" edge="1">
          <mxGeometry relative="1" as="geometry">
            <mxPoint x="1520" y="680" as="targetPoint" />
            <Array as="points">
              <mxPoint x="1520" y="900" />
              <mxPoint x="1620" y="900" />
              <mxPoint x="1620" y="680" />
            </Array>
          </mxGeometry>
        </mxCell>
        <mxCell id="Jo3el0Z35PBfp2zs-FnJ-10" value="outArray[ind] = tempArray[ind]&lt;br&gt;ind++" style="whiteSpace=wrap;html=1;strokeWidth=2;" parent="1" vertex="1">
          <mxGeometry x="1435" y="830" width="170" height="50" as="geometry" />
        </mxCell>
        <mxCell id="Jo3el0Z35PBfp2zs-FnJ-13" value="outArray" style="shape=document;whiteSpace=wrap;html=1;boundedLbl=1;strokeWidth=2;" parent="1" vertex="1">
          <mxGeometry x="1480" y="940" width="80" height="40" as="geometry" />
        </mxCell>
        <mxCell id="Jo3el0Z35PBfp2zs-FnJ-16" style="edgeStyle=orthogonalEdgeStyle;rounded=0;orthogonalLoop=1;jettySize=auto;html=1;exitX=0.497;exitY=0.868;exitDx=0;exitDy=0;exitPerimeter=0;entryX=0.5;entryY=0;entryDx=0;entryDy=0;entryPerimeter=0;" parent="1" source="Jo3el0Z35PBfp2zs-FnJ-13" target="Jo3el0Z35PBfp2zs-FnJ-14" edge="1">
          <mxGeometry relative="1" as="geometry">
            <mxPoint x="1530" y="990" as="targetPoint" />
            <Array as="points">
              <mxPoint x="1520" y="990" />
            </Array>
          </mxGeometry>
        </mxCell>
        <mxCell id="Jo3el0Z35PBfp2zs-FnJ-14" value="Конец" style="strokeWidth=2;html=1;shape=mxgraph.flowchart.terminator;whiteSpace=wrap;" parent="1" vertex="1">
          <mxGeometry x="1485" y="1000" width="70" height="30" as="geometry" />
        </mxCell>
        <mxCell id="FL35kg1szU_DRtUcH_IO-3" value="tempArray[ind] = number&lt;br&gt;quantiti++" style="rounded=1;whiteSpace=wrap;html=1;absoluteArcSize=1;arcSize=0;strokeWidth=2;" vertex="1" parent="1">
          <mxGeometry x="1445" y="495" width="150" height="50" as="geometry" />
        </mxCell>
        <mxCell id="FL35kg1szU_DRtUcH_IO-5" value="да" style="edgeStyle=orthogonalEdgeStyle;rounded=0;orthogonalLoop=1;jettySize=auto;html=1;exitX=0.5;exitY=1;exitDx=0;exitDy=0;entryX=0.5;entryY=0;entryDx=0;entryDy=0;" edge="1" parent="1" source="FL35kg1szU_DRtUcH_IO-4" target="FL35kg1szU_DRtUcH_IO-3">
          <mxGeometry relative="1" as="geometry" />
        </mxCell>
        <mxCell id="FL35kg1szU_DRtUcH_IO-6" value="нет" style="edgeStyle=orthogonalEdgeStyle;rounded=0;orthogonalLoop=1;jettySize=auto;html=1;exitX=1;exitY=0.5;exitDx=0;exitDy=0;" edge="1" parent="1" source="FL35kg1szU_DRtUcH_IO-4">
          <mxGeometry x="-0.8361" relative="1" as="geometry">
            <mxPoint x="1520" y="570" as="targetPoint" />
            <Array as="points">
              <mxPoint x="1630" y="420" />
              <mxPoint x="1630" y="570" />
            </Array>
            <mxPoint as="offset" />
          </mxGeometry>
        </mxCell>
        <mxCell id="FL35kg1szU_DRtUcH_IO-4" value="number &amp;gt;= 0" style="rhombus;whiteSpace=wrap;html=1;strokeWidth=2;" vertex="1" parent="1">
          <mxGeometry x="1455" y="395" width="130" height="50" as="geometry" />
        </mxCell>
      </root>
    </mxGraphModel>
  </diagram>
</mxfile>
